<svg focusable="false" viewBox="0 0 235 73" xmlns="http://www.w3.org/2000/svg" xmlns:xlink="http://www.w3.org/1999/xlink">
 <g fill="none" fill-rule="evenodd">
  <path d="M228.193 54.161c-4.395 0-7.267 1.82-7.267 4.63 0 2.646 2.196 3.639 5.745 4.3l1.69.33c2.535.496 3.886 1.323 3.886 2.646 0 1.322-1.35 2.316-4.731 2.316-3.041 0-5.408-.994-6.084-1.49l-.677 2.316c.677.33 3.043 1.323 6.591 1.323 4.734 0 7.438-1.82 7.438-4.63 0-2.645-2.367-3.968-6.085-4.63l-1.69-.331c-2.704-.496-3.549-.992-3.549-2.315 0-1.322 1.522-2.314 4.562-2.314 2.536 0 4.395.495 5.24.826l.509-1.984c-1.015-.33-2.875-.993-5.578-.993zM75.596 70.366h2.533l-7.604-15.212c-.337-.497-.676-.662-1.182-.662h-1.859l-7.942 15.874h2.534l2.029-4.133h9.462l2.03 4.133zm31.261 0v-5.787c1.184.66 2.874.992 4.734.992 1.013 0 1.69 0 2.533-.165l3.38 4.96h2.704l-3.718-5.622c2.368-.992 3.887-2.976 3.887-5.291 0-2.976-2.534-5.126-7.097-5.126h-8.956v16.039h2.533zm62.866 0V57.304l11.152 12.4c.338.497.845.662 1.52.662h1.523V54.492h-2.367V67.06l-10.985-11.905c-.337-.497-.673-.662-1.519-.662h-1.691v15.874h2.367zm-97.17-6.283h-7.434l3.717-7.44 3.717 7.44zm39.206-.662c-1.86 0-3.718-.495-4.902-1.157v-5.952h6.592c3.212 0 4.394 1.653 4.394 3.14 0 2.15-1.692 3.97-6.084 3.97zm19.433 6.945h11.83v-2.15h-9.295V54.492h-2.535v15.874zm-41.91 0h2.537V54.492h-2.536v15.874zm107.309-15.874v15.874h13.013V68.05h-10.477v-4.96h9.123v-2.15h-9.123v-4.299h10.138v-2.15h-12.674zm-44.275 15.874h2.537V54.492h-2.537v15.874zM114.97 37.164h7.874L110.58 13.522c-.643-1.164-1.279-1.608-2.747-1.608h-6.77l-12.905 25.25h7.866l2.29-4.655h14.46l2.195 4.655zm64.528 0h7.778l-12.268-23.642c-.636-1.164-1.276-1.608-2.739-1.608h-6.773l-12.906 25.25h7.871l2.287-4.655h14.462l2.288 4.655zm27.728-6.177c.279.895 1.375 1.522 2.565 1.522h7.414l5.491-14.86 5.215 19.515h6.955l-5.764-22.383c-.543-2.239-1.829-2.867-3.933-2.867h-7.232l-5.214 14.777-4.122-12.543c-.545-1.606-1.557-2.234-3.203-2.234h-8.143l-6.684 25.25h7.052l5.118-19.515 4.485 13.338zm-32.574-3.584h-9.615l4.856-10.117 4.759 10.117zm-64.44 0h-9.608l4.854-10.117 4.755 10.117zm-27.545 9.761l2.927-5.822h-17.3V11.914h-7.412v25.25h21.785zm51.437 0h7.133v-19.43l12.453-.806v-5.014h-32.036v5.014l12.45.805v19.431zM10.655 62.807l6.316-2.249c1.316-.468 1.316.568 1.316 2.113v2.844c0 2.3-.79 2.58-1.842 2.955l-5.79 2.062v-7.725m0-12.616l16.053-5.717c1.315-.468 1.315.567 1.315 2.112v2.832c0 2.312-.79 2.593-1.842 2.968l-15.526 5.53V50.19M9.34 32.214l-8.158-2.905C.13 28.934.13 27.533.13 27.019c0 0 0 1.688 1.578 1.126L41.707 13.9c3.158-1.125 3.158-1.992 1.842-2.46 1.316.468 1.316.468 1.316 4.25 0 3.604 0 4.81-1.579 5.372L11.971 32.214c-1.316.469-1.316.469-2.631 0" fill="#1B0088">
  </path>
  <path d="M3.55 17.536l13.974 4.976 10.845-3.862L2.235 9.343C.393 8.687.13 8.593.13 9.881v3.347c0 3.09 2.368 3.933 3.42 4.308m40 6.52l-4.336-1.544-10.845 3.862 6.868 2.446 6.47-2.304c3.158-1.124 3.158-1.991 1.842-2.46" fill="#ED1650">
  </path>
  <path d="M43.55 24.056c1.315.469 1.315 1.336-1.843 2.46L10.655 37.575v7.724l32.631-11.62c1.579-.563 1.579-1.769 1.579-5.374 0-3.78 0-3.78-1.316-4.249" fill="#1B0088">
  </path>
  <path d="M43.55 11.44L12.76.475c-1.841-.656-2.105-.75-2.105.538V4.36c0 3.09 2.368 3.933 3.42 4.308l21.162 7.536 6.47-2.304c3.158-1.125 3.158-1.992 1.842-2.46M1.708 28.145l8.948-3.187-8.421-2.999C.393 21.303.13 21.21.13 22.497v4.521s0 1.689 1.578 1.127" fill="#ED1650">
  </path>
 </g>
</svg>